# MagicaVoxel @ Ephtracy

# group
o 

# material
mtllib Bomb2.mtl
usemtl palette

# normals
vn -1 0 0
vn 1 0 0
vn 0 0 1
vn 0 0 -1
vn 0 -1 0
vn 0 1 0

# texcoords
vt 0.970703 0.5
vt 0.974609 0.5
vt 0.978516 0.5
vt 0.982422 0.5
vt 0.986328 0.5
vt 0.990234 0.5

# verts
v -0.9 0.2 0.3
v -0.9 0.2 0.1
v -0.9 0.3 0.3
v -0.9 0.3 0.1
v -0.9 0.3 0
v -0.9 0.4 0.3
v -0.9 0.4 0
v -0.8 0 0.3
v -0.8 0 -0.3
v -0.8 0.1 0.2
v -0.8 0.1 0.1
v -0.8 0.1 -0.1
v -0.8 0.1 -0.2
v -0.8 0.2 0.4
v -0.8 0.2 0.3
v -0.8 0.2 0.2
v -0.8 0.2 0.1
v -0.8 0.2 -0.1
v -0.8 0.2 -0.2
v -0.8 0.3 0.4
v -0.8 0.3 0.3
v -0.8 0.3 0.1
v -0.8 0.3 0
v -0.8 0.4 0.4
v -0.8 0.4 0.3
v -0.8 0.4 0.2
v -0.8 0.4 0.1
v -0.8 0.4 0
v -0.8 0.4 -0.1
v -0.8 0.4 -0.2
v -0.8 0.5 0.2
v -0.8 0.5 0.1
v -0.8 0.5 -0.1
v -0.8 0.5 -0.2
v -0.8 0.6 0.3
v -0.8 0.6 -0.3
v -0.3 0.6 0.2
v -0.3 0.6 -0.1
v -0.3 0.7 0.2
v -0.3 0.7 -0.1
v -0.2 0.4 0.4
v -0.2 0.4 0.3
v -0.2 0.5 0.4
v -0.2 0.5 0.3
v -0.2 0.6 0.3
v -0.2 0.6 0.2
v -0.2 0.6 -0.1
v -0.2 0.6 -0.2
v -0.2 0.7 0.3
v -0.2 0.7 0.2
v -0.2 0.7 -0.1
v -0.2 0.7 -0.2
v -0.1 0.5 0.4
v -0.1 0.5 0.3
v -0.1 0.6 0.4
v -0.1 0.6 0.3
v -0.1 0.6 -0.2
v -0.1 0.6 -0.3
v -0.1 0.7 0.4
v -0.1 0.7 0.3
v -0.1 0.7 -0.2
v -0.1 0.7 -0.3
v 0 0.3 0.4
v 0 0.3 0.3
v 0 0.4 0.4
v 0 0.4 0.3
v 0.1 0.4 0.4
v 0.1 0.4 0.3
v 0.1 0.6 0.4
v 0.1 0.6 0.3
v -0.2 0.3 0.4
v -0.2 0.3 0.3
v -0.2 0.4 0.4
v -0.2 0.4 0.3
v -0.1 0.4 0.4
v -0.1 0.4 0.3
v -0.1 0.5 0.4
v -0.1 0.5 0.3
v 0 0.2 0.4
v 0 0.2 0.3
v 0 0.3 0.4
v 0 0.3 0.3
v 0 0.5 0.4
v 0 0.5 0.3
v 0 0.6 0.4
v 0 0.6 0.3
v 0.1 0.3 0.4
v 0.1 0.3 0.3
v 0.1 0.4 0.4
v 0.1 0.4 0.3
v 0.2 0.4 0.4
v 0.2 0.4 0.3
v 0.2 0.6 0.4
v 0.2 0.6 0.3
v 0.2 0.6 -0.2
v 0.2 0.6 -0.3
v 0.2 0.7 0.4
v 0.2 0.7 0.3
v 0.2 0.7 -0.2
v 0.2 0.7 -0.3
v 0.3 0.6 0.3
v 0.3 0.6 0.2
v 0.3 0.6 -0.1
v 0.3 0.6 -0.2
v 0.3 0.7 0.3
v 0.3 0.7 0.2
v 0.3 0.7 -0.1
v 0.3 0.7 -0.2
v 0.4 0.6 0.2
v 0.4 0.6 -0.1
v 0.4 0.7 0.2
v 0.4 0.7 -0.1
v 0.9 0 0.3
v 0.9 0 -0.3
v 0.9 0.1 0.2
v 0.9 0.1 0.1
v 0.9 0.1 -0.1
v 0.9 0.1 -0.2
v 0.9 0.2 0.2
v 0.9 0.2 0.1
v 0.9 0.2 -0.1
v 0.9 0.2 -0.2
v 0.9 0.4 0.2
v 0.9 0.4 0.1
v 0.9 0.4 -0.1
v 0.9 0.4 -0.2
v 0.9 0.5 0.2
v 0.9 0.5 0.1
v 0.9 0.5 -0.1
v 0.9 0.5 -0.2
v 0.9 0.6 0.3
v 0.9 0.6 -0.3
v -0.8 0.2 0.4
v -0.8 0.3 0.4
v -0.8 0.4 0.4
v -0.2 0.3 0.4
v -0.2 0.4 0.4
v -0.2 0.5 0.4
v -0.1 0.4 0.4
v -0.1 0.5 0.4
v -0.1 0.6 0.4
v -0.1 0.7 0.4
v 0 0.2 0.4
v 0 0.3 0.4
v 0 0.4 0.4
v 0 0.5 0.4
v 0 0.6 0.4
v 0.1 0.3 0.4
v 0.1 0.4 0.4
v 0.1 0.6 0.4
v 0.2 0.4 0.4
v 0.2 0.6 0.4
v 0.2 0.7 0.4
v -0.9 0.2 0.3
v -0.9 0.3 0.3
v -0.9 0.4 0.3
v -0.8 0 0.3
v -0.8 0.2 0.3
v -0.8 0.3 0.3
v -0.8 0.4 0.3
v -0.8 0.6 0.3
v -0.6 0 0.3
v -0.6 0.2 0.3
v -0.6 0.4 0.3
v -0.6 0.6 0.3
v -0.5 0 0.3
v -0.5 0.2 0.3
v -0.5 0.4 0.3
v -0.5 0.6 0.3
v -0.2 0.3 0.3
v -0.2 0.4 0.3
v -0.2 0.5 0.3
v -0.2 0.6 0.3
v -0.2 0.7 0.3
v -0.1 0.4 0.3
v -0.1 0.5 0.3
v -0.1 0.6 0.3
v -0.1 0.7 0.3
v 0 0 0.3
v 0 0.2 0.3
v 0 0.3 0.3
v 0 0.4 0.3
v 0 0.5 0.3
v 0 0.6 0.3
v 0.1 0 0.3
v 0.1 0.3 0.3
v 0.1 0.4 0.3
v 0.1 0.6 0.3
v 0.2 0.4 0.3
v 0.2 0.6 0.3
v 0.2 0.7 0.3
v 0.3 0.6 0.3
v 0.3 0.7 0.3
v 0.6 0 0.3
v 0.6 0.6 0.3
v 0.7 0 0.3
v 0.7 0.6 0.3
v 0.9 0 0.3
v 0.9 0.6 0.3
v -0.3 0.6 0.2
v -0.3 0.7 0.2
v -0.2 0.6 0.2
v -0.2 0.7 0.2
v 0.3 0.6 0.2
v 0.3 0.7 0.2
v 0.4 0.6 0.2
v 0.4 0.7 0.2
v -0.9 0.2 0.1
v -0.9 0.3 0.1
v -0.8 0.2 0.1
v -0.8 0.3 0.1
v -0.9 0.3 0
v -0.9 0.4 0
v -0.8 0.3 0
v -0.8 0.4 0
v -0.3 0.6 -0.1
v -0.3 0.7 -0.1
v -0.2 0.6 -0.1
v -0.2 0.7 -0.1
v 0.3 0.6 -0.1
v 0.3 0.7 -0.1
v 0.4 0.6 -0.1
v 0.4 0.7 -0.1
v -0.2 0.6 -0.2
v -0.2 0.7 -0.2
v -0.1 0.6 -0.2
v -0.1 0.7 -0.2
v 0.2 0.6 -0.2
v 0.2 0.7 -0.2
v 0.3 0.6 -0.2
v 0.3 0.7 -0.2
v -0.8 0 -0.3
v -0.8 0.6 -0.3
v -0.6 0 -0.3
v -0.6 0.6 -0.3
v -0.5 0 -0.3
v -0.5 0.6 -0.3
v -0.1 0.6 -0.3
v -0.1 0.7 -0.3
v 0 0 -0.3
v 0 0.6 -0.3
v 0.1 0 -0.3
v 0.1 0.6 -0.3
v 0.2 0.6 -0.3
v 0.2 0.7 -0.3
v 0.6 0 -0.3
v 0.6 0.6 -0.3
v 0.7 0 -0.3
v 0.7 0.6 -0.3
v 0.9 0 -0.3
v 0.9 0.6 -0.3
v -0.8 0 0.3
v -0.6 0 0.3
v -0.5 0 0.3
v 0 0 0.3
v 0.1 0 0.3
v 0.6 0 0.3
v 0.7 0 0.3
v 0.9 0 0.3
v -0.8 0 -0.3
v -0.6 0 -0.3
v -0.5 0 -0.3
v 0 0 -0.3
v 0.1 0 -0.3
v 0.6 0 -0.3
v 0.7 0 -0.3
v 0.9 0 -0.3
v -0.8 0.2 0.4
v 0 0.2 0.4
v -0.9 0.2 0.3
v -0.8 0.2 0.3
v -0.6 0.2 0.3
v -0.5 0.2 0.3
v 0 0.2 0.3
v -0.8 0.2 0.2
v -0.9 0.2 0.1
v -0.8 0.2 0.1
v 0 0.3 0.4
v 0.1 0.3 0.4
v 0 0.3 0.3
v 0.1 0.3 0.3
v -0.9 0.3 0.1
v -0.8 0.3 0.1
v -0.9 0.3 0
v -0.8 0.3 0
v -0.2 0.4 0.4
v -0.1 0.4 0.4
v 0.1 0.4 0.4
v 0.2 0.4 0.4
v -0.2 0.4 0.3
v -0.1 0.4 0.3
v 0.1 0.4 0.3
v 0.2 0.4 0.3
v -0.1 0.5 0.4
v 0 0.5 0.4
v -0.1 0.5 0.3
v 0 0.5 0.3
v 0 0.6 0.4
v 0.1 0.6 0.4
v 0 0.6 0.3
v 0.1 0.6 0.3
v -0.2 0.3 0.4
v 0 0.3 0.4
v -0.2 0.3 0.3
v 0 0.3 0.3
v -0.8 0.4 0.4
v -0.2 0.4 0.4
v 0 0.4 0.4
v 0.1 0.4 0.4
v -0.9 0.4 0.3
v -0.8 0.4 0.3
v -0.6 0.4 0.3
v -0.5 0.4 0.3
v -0.2 0.4 0.3
v 0 0.4 0.3
v 0.1 0.4 0.3
v -0.8 0.4 0.2
v -0.8 0.4 0.1
v -0.9 0.4 0
v -0.8 0.4 0
v -0.2 0.5 0.4
v -0.1 0.5 0.4
v -0.2 0.5 0.3
v -0.1 0.5 0.3
v -0.8 0.6 0.3
v -0.6 0.6 0.3
v -0.5 0.6 0.3
v -0.2 0.6 0.3
v 0.3 0.6 0.3
v 0.6 0.6 0.3
v 0.7 0.6 0.3
v 0.9 0.6 0.3
v -0.3 0.6 0.2
v -0.2 0.6 0.2
v 0.3 0.6 0.2
v 0.4 0.6 0.2
v -0.3 0.6 -0.1
v -0.2 0.6 -0.1
v 0.3 0.6 -0.1
v 0.4 0.6 -0.1
v -0.2 0.6 -0.2
v -0.1 0.6 -0.2
v 0.2 0.6 -0.2
v 0.3 0.6 -0.2
v -0.8 0.6 -0.3
v -0.6 0.6 -0.3
v -0.5 0.6 -0.3
v -0.1 0.6 -0.3
v 0.2 0.6 -0.3
v 0.6 0.6 -0.3
v 0.7 0.6 -0.3
v 0.9 0.6 -0.3
v -0.1 0.7 0.4
v 0.2 0.7 0.4
v -0.2 0.7 0.3
v -0.1 0.7 0.3
v 0.2 0.7 0.3
v 0.3 0.7 0.3
v -0.3 0.7 0.2
v -0.2 0.7 0.2
v -0.1 0.7 0.2
v 0.2 0.7 0.2
v 0.3 0.7 0.2
v 0.4 0.7 0.2
v 0 0.7 0.1
v 0.1 0.7 0.1
v 0.2 0.7 0.1
v 0 0.7 0
v 0.1 0.7 0
v 0.2 0.7 0
v 0.3 0.7 0
v -0.3 0.7 -0.1
v -0.2 0.7 -0.1
v -0.1 0.7 -0.1
v 0.2 0.7 -0.1
v 0.3 0.7 -0.1
v 0.4 0.7 -0.1
v -0.2 0.7 -0.2
v -0.1 0.7 -0.2
v 0 0.7 -0.2
v 0.1 0.7 -0.2
v 0.2 0.7 -0.2
v 0.3 0.7 -0.2
v -0.1 0.7 -0.3
v 0.2 0.7 -0.3

# faces
f 3/6/1 2/6/1 1/6/1
f 4/6/1 2/6/1 3/6/1
f 6/5/1 4/5/1 3/5/1
f 6/5/1 5/5/1 4/5/1
f 7/5/1 5/5/1 6/5/1
f 10/1/1 9/1/1 8/1/1
f 11/1/1 9/1/1 10/1/1
f 12/1/1 9/1/1 11/1/1
f 13/1/1 9/1/1 12/1/1
f 15/1/1 10/1/1 8/1/1
f 16/2/1 11/2/1 10/2/1
f 16/1/1 10/1/1 15/1/1
f 17/1/1 12/1/1 11/1/1
f 17/2/1 11/2/1 16/2/1
f 18/2/1 13/2/1 12/2/1
f 18/1/1 12/1/1 17/1/1
f 19/1/1 9/1/1 13/1/1
f 19/2/1 13/2/1 18/2/1
f 20/6/1 15/6/1 14/6/1
f 21/6/1 15/6/1 20/6/1
f 22/1/1 18/1/1 17/1/1
f 22/1/1 19/1/1 18/1/1
f 23/1/1 19/1/1 22/1/1
f 24/5/1 21/5/1 20/5/1
f 25/5/1 21/5/1 24/5/1
f 28/1/1 19/1/1 23/1/1
f 29/1/1 19/1/1 28/1/1
f 30/1/1 9/1/1 19/1/1
f 30/1/1 19/1/1 29/1/1
f 31/2/1 27/2/1 26/2/1
f 31/1/1 26/1/1 25/1/1
f 32/1/1 29/1/1 28/1/1
f 32/2/1 27/2/1 31/2/1
f 32/1/1 28/1/1 27/1/1
f 33/2/1 30/2/1 29/2/1
f 33/1/1 29/1/1 32/1/1
f 34/1/1 9/1/1 30/1/1
f 34/2/1 30/2/1 33/2/1
f 35/1/1 33/1/1 32/1/1
f 35/1/1 31/1/1 25/1/1
f 35/1/1 34/1/1 33/1/1
f 35/1/1 32/1/1 31/1/1
f 36/1/1 9/1/1 34/1/1
f 36/1/1 34/1/1 35/1/1
f 39/2/1 38/2/1 37/2/1
f 40/2/1 38/2/1 39/2/1
f 43/5/1 42/5/1 41/5/1
f 44/5/1 42/5/1 43/5/1
f 49/2/1 46/2/1 45/2/1
f 50/2/1 46/2/1 49/2/1
f 51/2/1 48/2/1 47/2/1
f 52/2/1 48/2/1 51/2/1
f 55/5/1 54/5/1 53/5/1
f 56/5/1 54/5/1 55/5/1
f 59/2/1 56/2/1 55/2/1
f 60/2/1 56/2/1 59/2/1
f 61/2/1 58/2/1 57/2/1
f 62/2/1 58/2/1 61/2/1
f 65/6/1 64/6/1 63/6/1
f 66/6/1 64/6/1 65/6/1
f 69/6/1 68/6/1 67/6/1
f 70/6/1 68/6/1 69/6/1
f 71/5/2 72/5/2 73/5/2
f 73/5/2 72/5/2 74/5/2
f 75/5/2 76/5/2 77/5/2
f 77/5/2 76/5/2 78/5/2
f 79/6/2 80/6/2 81/6/2
f 81/6/2 80/6/2 82/6/2
f 83/5/2 84/5/2 85/5/2
f 85/5/2 84/5/2 86/5/2
f 87/6/2 88/6/2 89/6/2
f 89/6/2 88/6/2 90/6/2
f 91/6/2 92/6/2 93/6/2
f 93/6/2 92/6/2 94/6/2
f 93/2/2 94/2/2 97/2/2
f 97/2/2 94/2/2 98/2/2
f 95/2/2 96/2/2 99/2/2
f 99/2/2 96/2/2 100/2/2
f 101/2/2 102/2/2 105/2/2
f 105/2/2 102/2/2 106/2/2
f 103/2/2 104/2/2 107/2/2
f 107/2/2 104/2/2 108/2/2
f 109/2/2 110/2/2 111/2/2
f 111/2/2 110/2/2 112/2/2
f 113/1/2 114/1/2 115/1/2
f 115/1/2 114/1/2 116/1/2
f 116/1/2 114/1/2 117/1/2
f 117/1/2 114/1/2 118/1/2
f 113/1/2 115/1/2 119/1/2
f 115/2/2 116/2/2 119/2/2
f 116/1/2 117/1/2 120/1/2
f 119/2/2 116/2/2 120/2/2
f 117/2/2 118/2/2 121/2/2
f 120/1/2 117/1/2 121/1/2
f 118/1/2 114/1/2 122/1/2
f 121/2/2 118/2/2 122/2/2
f 120/1/2 121/1/2 123/1/2
f 119/1/2 120/1/2 123/1/2
f 121/1/2 122/1/2 123/1/2
f 113/1/2 119/1/2 123/1/2
f 123/1/2 122/1/2 124/1/2
f 124/1/2 122/1/2 125/1/2
f 122/1/2 114/1/2 126/1/2
f 125/1/2 122/1/2 126/1/2
f 113/1/2 123/1/2 127/1/2
f 123/2/2 124/2/2 127/2/2
f 124/1/2 125/1/2 128/1/2
f 127/2/2 124/2/2 128/2/2
f 125/2/2 126/2/2 129/2/2
f 128/1/2 125/1/2 129/1/2
f 126/1/2 114/1/2 130/1/2
f 129/2/2 126/2/2 130/2/2
f 113/1/2 127/1/2 131/1/2
f 128/1/2 129/1/2 131/1/2
f 129/1/2 130/1/2 131/1/2
f 127/1/2 128/1/2 131/1/2
f 130/1/2 114/1/2 132/1/2
f 131/1/2 130/1/2 132/1/2
f 136/6/3 134/6/3 133/6/3
f 136/5/3 135/5/3 134/5/3
f 137/5/3 135/5/3 136/5/3
f 139/5/3 138/5/3 137/5/3
f 140/5/3 138/5/3 139/5/3
f 143/6/3 136/6/3 133/6/3
f 144/6/3 136/6/3 143/6/3
f 146/5/3 141/5/3 140/5/3
f 147/2/3 142/2/3 141/2/3
f 147/5/3 141/5/3 146/5/3
f 148/6/3 145/6/3 144/6/3
f 149/6/3 145/6/3 148/6/3
f 150/2/3 142/2/3 147/2/3
f 151/6/3 150/6/3 149/6/3
f 152/2/3 142/2/3 150/2/3
f 152/6/3 150/6/3 151/6/3
f 153/2/3 142/2/3 152/2/3
f 158/6/3 155/6/3 154/6/3
f 159/5/3 156/5/3 155/5/3
f 159/6/3 155/6/3 158/6/3
f 160/5/3 156/5/3 159/5/3
f 162/1/3 158/1/3 157/1/3
f 163/1/3 158/1/3 162/1/3
f 164/1/3 161/1/3 160/1/3
f 165/1/3 161/1/3 164/1/3
f 166/2/3 163/2/3 162/2/3
f 167/2/3 163/2/3 166/2/3
f 168/2/3 165/2/3 164/2/3
f 169/2/3 165/2/3 168/2/3
f 171/1/3 169/1/3 168/1/3
f 172/1/3 169/1/3 171/1/3
f 173/1/3 169/1/3 172/1/3
f 175/1/3 171/1/3 170/1/3
f 176/1/3 173/1/3 172/1/3
f 177/2/3 174/2/3 173/2/3
f 177/1/3 173/1/3 176/1/3
f 178/2/3 174/2/3 177/2/3
f 179/1/3 167/1/3 166/1/3
f 180/1/3 167/1/3 179/1/3
f 181/1/3 175/1/3 170/1/3
f 181/1/3 176/1/3 175/1/3
f 182/1/3 176/1/3 181/1/3
f 183/1/3 176/1/3 182/1/3
f 185/2/3 180/2/3 179/2/3
f 185/2/3 181/2/3 180/2/3
f 186/2/3 181/2/3 185/2/3
f 187/2/3 184/2/3 183/2/3
f 187/2/3 183/2/3 182/2/3
f 188/2/3 184/2/3 187/2/3
f 189/1/3 186/1/3 185/1/3
f 189/1/3 187/1/3 186/1/3
f 192/1/3 190/1/3 189/1/3
f 192/2/3 191/2/3 190/2/3
f 193/2/3 191/2/3 192/2/3
f 194/1/3 189/1/3 185/1/3
f 194/1/3 192/1/3 189/1/3
f 195/1/3 192/1/3 194/1/3
f 196/2/3 195/2/3 194/2/3
f 197/2/3 195/2/3 196/2/3
f 198/1/3 197/1/3 196/1/3
f 199/1/3 197/1/3 198/1/3
f 202/2/3 201/2/3 200/2/3
f 203/2/3 201/2/3 202/2/3
f 206/2/3 205/2/3 204/2/3
f 207/2/3 205/2/3 206/2/3
f 208/6/4 209/6/4 210/6/4
f 210/6/4 209/6/4 211/6/4
f 212/5/4 213/5/4 214/5/4
f 214/5/4 213/5/4 215/5/4
f 216/2/4 217/2/4 218/2/4
f 218/2/4 217/2/4 219/2/4
f 220/2/4 221/2/4 222/2/4
f 222/2/4 221/2/4 223/2/4
f 224/2/4 225/2/4 226/2/4
f 226/2/4 225/2/4 227/2/4
f 228/2/4 229/2/4 230/2/4
f 230/2/4 229/2/4 231/2/4
f 232/1/4 233/1/4 234/1/4
f 234/1/4 233/1/4 235/1/4
f 234/2/4 235/2/4 236/2/4
f 236/2/4 235/2/4 237/2/4
f 236/1/4 237/1/4 238/1/4
f 236/1/4 238/1/4 240/1/4
f 238/2/4 239/2/4 241/2/4
f 240/1/4 238/1/4 241/1/4
f 240/2/4 241/2/4 242/2/4
f 241/2/4 239/2/4 243/2/4
f 242/2/4 241/2/4 243/2/4
f 242/1/4 243/1/4 244/1/4
f 243/2/4 239/2/4 244/2/4
f 244/2/4 239/2/4 245/2/4
f 242/1/4 244/1/4 246/1/4
f 246/1/4 244/1/4 247/1/4
f 246/2/4 247/2/4 248/2/4
f 248/2/4 247/2/4 249/2/4
f 248/1/4 249/1/4 250/1/4
f 250/1/4 249/1/4 251/1/4
f 260/1/5 253/1/5 252/1/5
f 261/2/5 254/2/5 253/2/5
f 261/1/5 253/1/5 260/1/5
f 262/1/5 255/1/5 254/1/5
f 262/2/5 254/2/5 261/2/5
f 263/2/5 256/2/5 255/2/5
f 263/1/5 255/1/5 262/1/5
f 264/1/5 257/1/5 256/1/5
f 264/2/5 256/2/5 263/2/5
f 265/2/5 258/2/5 257/2/5
f 265/1/5 257/1/5 264/1/5
f 266/1/5 259/1/5 258/1/5
f 266/2/5 258/2/5 265/2/5
f 267/1/5 259/1/5 266/1/5
f 271/6/5 269/6/5 268/6/5
f 272/6/5 269/6/5 271/6/5
f 273/6/5 269/6/5 272/6/5
f 274/6/5 269/6/5 273/6/5
f 275/6/5 271/6/5 270/6/5
f 276/6/5 275/6/5 270/6/5
f 277/6/5 275/6/5 276/6/5
f 280/6/5 279/6/5 278/6/5
f 281/6/5 279/6/5 280/6/5
f 284/5/5 283/5/5 282/5/5
f 285/5/5 283/5/5 284/5/5
f 290/5/5 287/5/5 286/5/5
f 291/5/5 287/5/5 290/5/5
f 292/6/5 289/6/5 288/6/5
f 293/6/5 289/6/5 292/6/5
f 296/5/5 295/5/5 294/5/5
f 297/5/5 295/5/5 296/5/5
f 300/2/5 299/2/5 298/2/5
f 301/2/5 299/2/5 300/2/5
f 302/6/6 303/6/6 304/6/6
f 304/6/6 303/6/6 305/6/6
f 306/5/6 307/5/6 311/5/6
f 311/5/6 307/5/6 312/5/6
f 312/5/6 307/5/6 313/5/6
f 313/5/6 307/5/6 314/5/6
f 308/6/6 309/6/6 315/6/6
f 315/6/6 309/6/6 316/6/6
f 310/5/6 311/5/6 317/5/6
f 310/5/6 317/5/6 318/5/6
f 310/5/6 318/5/6 319/5/6
f 319/5/6 318/5/6 320/5/6
f 321/5/6 322/5/6 323/5/6
f 323/5/6 322/5/6 324/5/6
f 327/1/6 328/1/6 333/1/6
f 333/1/6 328/1/6 334/1/6
f 329/1/6 330/1/6 335/1/6
f 335/1/6 330/1/6 336/1/6
f 327/1/6 333/1/6 337/1/6
f 336/1/6 330/1/6 340/1/6
f 337/1/6 338/1/6 341/1/6
f 339/1/6 340/1/6 344/1/6
f 325/1/6 326/1/6 345/1/6
f 326/2/6 327/2/6 346/2/6
f 345/1/6 326/1/6 346/1/6
f 341/1/6 342/1/6 347/1/6
f 346/2/6 327/2/6 347/2/6
f 327/1/6 337/1/6 347/1/6
f 337/1/6 341/1/6 347/1/6
f 347/1/6 342/1/6 348/1/6
f 343/1/6 344/1/6 349/1/6
f 330/2/6 331/2/6 350/2/6
f 349/1/6 344/1/6 350/1/6
f 344/1/6 340/1/6 350/1/6
f 340/1/6 330/1/6 350/1/6
f 331/1/6 332/1/6 351/1/6
f 350/2/6 331/2/6 351/2/6
f 351/1/6 332/1/6 352/1/6
f 353/2/6 354/2/6 356/2/6
f 356/2/6 354/2/6 357/2/6
f 355/2/6 356/2/6 360/2/6
f 356/3/6 357/3/6 361/3/6
f 360/2/6 356/2/6 361/2/6
f 357/2/6 358/2/6 362/2/6
f 361/3/6 357/3/6 362/3/6
f 362/2/6 358/2/6 363/2/6
f 360/3/6 361/3/6 365/3/6
f 361/3/6 362/3/6 365/3/6
f 362/3/6 363/3/6 365/3/6
f 365/3/6 363/3/6 366/3/6
f 366/3/6 363/3/6 367/3/6
f 360/3/6 365/3/6 368/3/6
f 365/2/6 366/2/6 368/2/6
f 366/4/6 367/4/6 369/4/6
f 368/2/6 366/2/6 369/2/6
f 367/3/6 363/3/6 370/3/6
f 369/4/6 367/4/6 370/4/6
f 363/2/6 364/2/6 371/2/6
f 370/3/6 363/3/6 371/3/6
f 359/2/6 360/2/6 372/2/6
f 360/3/6 368/3/6 373/3/6
f 372/2/6 360/2/6 373/2/6
f 373/3/6 368/3/6 374/3/6
f 369/3/6 370/3/6 375/3/6
f 370/4/6 371/4/6 375/4/6
f 371/2/6 364/2/6 376/2/6
f 375/4/6 371/4/6 376/4/6
f 376/2/6 364/2/6 377/2/6
f 373/2/6 374/2/6 378/2/6
f 374/3/6 368/3/6 379/3/6
f 378/2/6 374/2/6 379/2/6
f 368/4/6 369/4/6 380/4/6
f 379/3/6 368/3/6 380/3/6
f 369/3/6 375/3/6 381/3/6
f 380/4/6 369/4/6 381/4/6
f 375/2/6 376/2/6 382/2/6
f 381/3/6 375/3/6 382/3/6
f 382/2/6 376/2/6 383/2/6
f 379/2/6 380/2/6 384/2/6
f 381/2/6 382/2/6 384/2/6
f 380/2/6 381/2/6 384/2/6
f 384/2/6 382/2/6 385/2/6
